<svg xmlns="http://www.w3.org/2000/svg" width="620" height="220" viewBox="0 0 620 220" fill="none" role="img" aria-labelledby="title">
<title id="title">House Hunting — Location meets intelligence.</title>
<rect width="620" height="220" rx="10" fill="#121B22"/><path d="M30 190H590" stroke="#2B3A44"/><text x="30" y="40" fill="#AABBC5" font-family="Arial, Helvetica, sans-serif" font-size="10" font-weight="400" letter-spacing="1.5">04 / AI &amp; WEB APPLICATIONS</text><text x="28" y="106" fill="#F1EEE8" font-family="Arial, Helvetica, sans-serif" font-size="36" font-weight="500" letter-spacing="-1">House Hunting</text><text x="30" y="140" fill="#B1C0C8" font-family="Arial, Helvetica, sans-serif" font-size="14" font-weight="400" letter-spacing="0">Location meets intelligence.</text><path d="M30 167H57" stroke="#E7A776" stroke-width="2"/><path d="M410 63L456 48L507 66L564 49V161L507 178L456 161L410 178Z" fill="#142029" stroke="#69838E" stroke-width="2"/>
<path d="M456 48V161M507 66V178M410 114L456 101L507 119L564 100" stroke="#3F5965"/>
<path d="M430 148L458 127L487 137L533 100" stroke="#E7A776" stroke-width="2" stroke-dasharray="4 5"/>
<path d="M533 73C514 73 512 94 533 112C554 94 552 73 533 73Z" fill="#E7A776"/>
<circle cx="533" cy="88" r="5" fill="#18242B"/><circle cx="430" cy="148" r="4" fill="#9DB6BE"/>
</svg>
